<?xml version="1.0" encoding="utf-8" standalone="no"?>
<!DOCTYPE svg PUBLIC "-//W3C//DTD SVG 1.1//EN"
  "http://www.w3.org/Graphics/SVG/1.1/DTD/svg11.dtd">
<svg xmlns:xlink="http://www.w3.org/1999/xlink" width="460.8pt" height="345.6pt" viewBox="0 0 460.8 345.6" xmlns="http://www.w3.org/2000/svg" version="1.1">
 <metadata>
  <rdf:RDF xmlns:dc="http://purl.org/dc/elements/1.1/" xmlns:cc="http://creativecommons.org/ns#" xmlns:rdf="http://www.w3.org/1999/02/22-rdf-syntax-ns#">
   <cc:Work>
    <dc:type rdf:resource="http://purl.org/dc/dcmitype/StillImage"/>
    <dc:date>2023-04-07T21:50:53.242831</dc:date>
    <dc:format>image/svg+xml</dc:format>
    <dc:creator>
     <cc:Agent>
      <dc:title>Matplotlib v3.6.2, https://matplotlib.org/</dc:title>
     </cc:Agent>
    </dc:creator>
   </cc:Work>
  </rdf:RDF>
 </metadata>
 <defs>
  <style type="text/css">*{stroke-linejoin: round; stroke-linecap: butt}</style>
 </defs>
 <g id="figure_1">
  <g id="patch_1">
   <path d="M 0 345.6 
L 460.8 345.6 
L 460.8 0 
L 0 0 
z
" style="fill: #ffffff"/>
  </g>
  <g id="axes_1">
   <g id="patch_2">
    <path d="M 87.86 280.6 
L 441.36 280.6 
L 441.36 19.44 
L 87.86 19.44 
z
" style="fill: #ffffff"/>
   </g>
   <g id="PathCollection_1">
    <defs>
     <path id="ma1a5a4ce19" d="M 0 24.741419 
C 6.561501 24.741419 12.855143 22.134507 17.494825 17.494825 
C 22.134507 12.855143 24.741419 6.561501 24.741419 0 
C 24.741419 -6.561501 22.134507 -12.855143 17.494825 -17.494825 
C 12.855143 -22.134507 6.561501 -24.741419 0 -24.741419 
C -6.561501 -24.741419 -12.855143 -22.134507 -17.494825 -17.494825 
C -22.134507 -12.855143 -24.741419 -6.561501 -24.741419 0 
C -24.741419 6.561501 -22.134507 12.855143 -17.494825 17.494825 
C -12.855143 22.134507 -6.561501 24.741419 0 24.741419 
z
" style="stroke: #ffb482; stroke-width: 1.5"/>
    </defs>
    <g clip-path="url(#p24db282cdf)">
     <use xlink:href="#ma1a5a4ce19" x="103.928182" y="86.981379" style="fill: #ffb482; fill-opacity: 0.5; stroke: #ffb482; stroke-width: 1.5"/>
    </g>
   </g>
   <g id="PathCollection_2">
    <defs>
     <path id="mdd460712cb" d="M 0 19.889725 
C 5.274817 19.889725 10.334301 17.794018 14.064159 14.064159 
C 17.794018 10.334301 19.889725 5.274817 19.889725 0 
C 19.889725 -5.274817 17.794018 -10.334301 14.064159 -14.064159 
C 10.334301 -17.794018 5.274817 -19.889725 0 -19.889725 
C -5.274817 -19.889725 -10.334301 -17.794018 -14.064159 -14.064159 
C -17.794018 -10.334301 -19.889725 -5.274817 -19.889725 0 
C -19.889725 5.274817 -17.794018 10.334301 -14.064159 14.064159 
C -10.334301 17.794018 -5.274817 19.889725 0 19.889725 
z
" style="stroke: #ffb482; stroke-width: 1.5"/>
    </defs>
    <g clip-path="url(#p24db282cdf)">
     <use xlink:href="#mdd460712cb" x="112.155091" y="77.157179" style="fill: #ffb482; fill-opacity: 0.5; stroke: #ffb482; stroke-width: 1.5"/>
    </g>
   </g>
   <g id="PathCollection_3">
    <defs>
     <path id="mf706db9888" d="M 0 13.742009 
C 3.644423 13.742009 7.140071 12.294065 9.717068 9.717068 
C 12.294065 7.140071 13.742009 3.644423 13.742009 0 
C 13.742009 -3.644423 12.294065 -7.140071 9.717068 -9.717068 
C 7.140071 -12.294065 3.644423 -13.742009 0 -13.742009 
C -3.644423 -13.742009 -7.140071 -12.294065 -9.717068 -9.717068 
C -12.294065 -7.140071 -13.742009 -3.644423 -13.742009 0 
C -13.742009 3.644423 -12.294065 7.140071 -9.717068 9.717068 
C -7.140071 12.294065 -3.644423 13.742009 0 13.742009 
z
" style="stroke: #ffb482; stroke-width: 1.5"/>
    </defs>
    <g clip-path="url(#p24db282cdf)">
     <use xlink:href="#mf706db9888" x="145.062727" y="109.904514" style="fill: #ffb482; fill-opacity: 0.5; stroke: #ffb482; stroke-width: 1.5"/>
    </g>
   </g>
   <g id="PathCollection_4">
    <defs>
     <path id="m17279b397e" d="M 0 23.974509 
C 6.358114 23.974509 12.456672 21.448404 16.952538 16.952538 
C 21.448404 12.456672 23.974509 6.358114 23.974509 0 
C 23.974509 -6.358114 21.448404 -12.456672 16.952538 -16.952538 
C 12.456672 -21.448404 6.358114 -23.974509 0 -23.974509 
C -6.358114 -23.974509 -12.456672 -21.448404 -16.952538 -16.952538 
C -21.448404 -12.456672 -23.974509 -6.358114 -23.974509 0 
C -23.974509 6.358114 -21.448404 12.456672 -16.952538 16.952538 
C -12.456672 21.448404 -6.358114 23.974509 0 23.974509 
z
" style="stroke: #ffb482; stroke-width: 1.5"/>
    </defs>
    <g clip-path="url(#p24db282cdf)">
     <use xlink:href="#m17279b397e" x="154.318" y="157.38815" style="fill: #ffb482; fill-opacity: 0.5; stroke: #ffb482; stroke-width: 1.5"/>
    </g>
   </g>
   <g id="PathCollection_5">
    <defs>
     <path id="m22d25ebd3c" d="M 0 12.417144 
C 3.293065 12.417144 6.451698 11.108795 8.780247 8.780247 
C 11.108795 6.451698 12.417144 3.293065 12.417144 0 
C 12.417144 -3.293065 11.108795 -6.451698 8.780247 -8.780247 
C 6.451698 -11.108795 3.293065 -12.417144 0 -12.417144 
C -3.293065 -12.417144 -6.451698 -11.108795 -8.780247 -8.780247 
C -11.108795 -6.451698 -12.417144 -3.293065 -12.417144 0 
C -12.417144 3.293065 -11.108795 6.451698 -8.780247 8.780247 
C -6.451698 11.108795 -3.293065 12.417144 0 12.417144 
z
" style="stroke: #ffb482; stroke-width: 1.5"/>
    </defs>
    <g clip-path="url(#p24db282cdf)">
     <use xlink:href="#m22d25ebd3c" x="158.431455" y="149.201317" style="fill: #ffb482; fill-opacity: 0.5; stroke: #ffb482; stroke-width: 1.5"/>
    </g>
   </g>
   <g id="PathCollection_6">
    <defs>
     <path id="mf400282fab" d="M 0 22.365025 
C 5.931274 22.365025 11.620417 20.008505 15.814461 15.814461 
C 20.008505 11.620417 22.365025 5.931274 22.365025 0 
C 22.365025 -5.931274 20.008505 -11.620417 15.814461 -15.814461 
C 11.620417 -20.008505 5.931274 -22.365025 0 -22.365025 
C -5.931274 -22.365025 -11.620417 -20.008505 -15.814461 -15.814461 
C -20.008505 -11.620417 -22.365025 -5.931274 -22.365025 0 
C -22.365025 5.931274 -20.008505 11.620417 -15.814461 15.814461 
C -11.620417 20.008505 -5.931274 22.365025 0 22.365025 
z
" style="stroke: #ffb482; stroke-width: 1.5"/>
    </defs>
    <g clip-path="url(#p24db282cdf)">
     <use xlink:href="#mf400282fab" x="161.002364" y="72.245078" style="fill: #ffb482; fill-opacity: 0.5; stroke: #ffb482; stroke-width: 1.5"/>
    </g>
   </g>
   <g id="PathCollection_7">
    <defs>
     <path id="mca111eefa4" d="M 0 2.097343 
C 0.556222 2.097343 1.089737 1.876354 1.483046 1.483046 
C 1.876354 1.089737 2.097343 0.556222 2.097343 0 
C 2.097343 -0.556222 1.876354 -1.089737 1.483046 -1.483046 
C 1.089737 -1.876354 0.556222 -2.097343 0 -2.097343 
C -0.556222 -2.097343 -1.089737 -1.876354 -1.483046 -1.483046 
C -1.876354 -1.089737 -2.097343 -0.556222 -2.097343 0 
C -2.097343 0.556222 -1.876354 1.089737 -1.483046 1.483046 
C -1.089737 1.876354 -0.556222 2.097343 0 2.097343 
z
" style="stroke: #ffb482; stroke-width: 1.5"/>
    </defs>
    <g clip-path="url(#p24db282cdf)">
     <use xlink:href="#mca111eefa4" x="135.293273" y="268.729091" style="fill: #ffb482; fill-opacity: 0.5; stroke: #ffb482; stroke-width: 1.5"/>
    </g>
   </g>
   <g id="PathCollection_8">
    <defs>
     <path id="m4aa11b5674" d="M 0 16.410811 
C 4.352198 16.410811 8.526727 14.681664 11.604196 11.604196 
C 14.681664 8.526727 16.410811 4.352198 16.410811 0 
C 16.410811 -4.352198 14.681664 -8.526727 11.604196 -11.604196 
C 8.526727 -14.681664 4.352198 -16.410811 0 -16.410811 
C -4.352198 -16.410811 -8.526727 -14.681664 -11.604196 -11.604196 
C -14.681664 -8.526727 -16.410811 -4.352198 -16.410811 0 
C -16.410811 4.352198 -14.681664 8.526727 -11.604196 11.604196 
C -8.526727 14.681664 -4.352198 16.410811 0 16.410811 
z
" style="stroke: #ffb482; stroke-width: 1.5"/>
    </defs>
    <g clip-path="url(#p24db282cdf)">
     <use xlink:href="#m4aa11b5674" x="198.537636" y="149.201317" style="fill: #ffb482; fill-opacity: 0.5; stroke: #ffb482; stroke-width: 1.5"/>
    </g>
   </g>
   <g id="PathCollection_9">
    <defs>
     <path id="mc2472adeb5" d="M 0 20.081835 
C 5.325765 20.081835 10.434117 17.965886 14.200002 14.200002 
C 17.965886 10.434117 20.081835 5.325765 20.081835 0 
C 20.081835 -5.325765 17.965886 -10.434117 14.200002 -14.200002 
C 10.434117 -17.965886 5.325765 -20.081835 0 -20.081835 
C -5.325765 -20.081835 -10.434117 -17.965886 -14.200002 -14.200002 
C -17.965886 -10.434117 -20.081835 -5.325765 -20.081835 0 
C -20.081835 5.325765 -17.965886 10.434117 -14.200002 14.200002 
C -10.434117 17.965886 -5.325765 20.081835 0 20.081835 
z
" style="stroke: #ffb482; stroke-width: 1.5"/>
    </defs>
    <g clip-path="url(#p24db282cdf)">
     <use xlink:href="#mc2472adeb5" x="203.679455" y="113.179248" style="fill: #ffb482; fill-opacity: 0.5; stroke: #ffb482; stroke-width: 1.5"/>
    </g>
   </g>
   <g id="PathCollection_10">
    <defs>
     <path id="ma0323ba67e" d="M 0 16.332485 
C 4.331426 16.332485 8.48603 14.611591 11.548811 11.548811 
C 14.611591 8.48603 16.332485 4.331426 16.332485 0 
C 16.332485 -4.331426 14.611591 -8.48603 11.548811 -11.548811 
C 8.48603 -14.611591 4.331426 -16.332485 0 -16.332485 
C -4.331426 -16.332485 -8.48603 -14.611591 -11.548811 -11.548811 
C -14.611591 -8.48603 -16.332485 -4.331426 -16.332485 0 
C -16.332485 4.331426 -14.611591 8.48603 -11.548811 11.548811 
C -8.48603 14.611591 -4.331426 16.332485 0 16.332485 
z
" style="stroke: #ffb482; stroke-width: 1.5"/>
    </defs>
    <g clip-path="url(#p24db282cdf)">
     <use xlink:href="#ma0323ba67e" x="204.707818" y="108.267147" style="fill: #ffb482; fill-opacity: 0.5; stroke: #ffb482; stroke-width: 1.5"/>
    </g>
   </g>
   <g id="PathCollection_11">
    <defs>
     <path id="m0f1f5f0249" d="M 0 24.230561 
C 6.42602 24.230561 12.589712 21.677477 17.133594 17.133594 
C 21.677477 12.589712 24.230561 6.42602 24.230561 0 
C 24.230561 -6.42602 21.677477 -12.589712 17.133594 -17.133594 
C 12.589712 -21.677477 6.42602 -24.230561 0 -24.230561 
C -6.42602 -24.230561 -12.589712 -21.677477 -17.133594 -17.133594 
C -21.677477 -12.589712 -24.230561 -6.42602 -24.230561 0 
C -24.230561 6.42602 -21.677477 12.589712 -17.133594 17.133594 
C -12.589712 21.677477 -6.42602 24.230561 0 24.230561 
z
" style="stroke: #ffb482; stroke-width: 1.5"/>
    </defs>
    <g clip-path="url(#p24db282cdf)">
     <use xlink:href="#m0f1f5f0249" x="204.707818" y="47.684577" style="fill: #ffb482; fill-opacity: 0.5; stroke: #ffb482; stroke-width: 1.5"/>
    </g>
   </g>
   <g id="PathCollection_12">
    <defs>
     <path id="me0e13740b1" d="M 0 21.692909 
C 5.753027 21.692909 11.271199 19.407207 15.339203 15.339203 
C 19.407207 11.271199 21.692909 5.753027 21.692909 0 
C 21.692909 -5.753027 19.407207 -11.271199 15.339203 -15.339203 
C 11.271199 -19.407207 5.753027 -21.692909 0 -21.692909 
C -5.753027 -21.692909 -11.271199 -19.407207 -15.339203 -15.339203 
C -19.407207 -11.271199 -21.692909 -5.753027 -21.692909 0 
C -21.692909 5.753027 -19.407207 11.271199 -15.339203 15.339203 
C -11.271199 19.407207 -5.753027 21.692909 0 21.692909 
z
" style="stroke: #ffb482; stroke-width: 1.5"/>
    </defs>
    <g clip-path="url(#p24db282cdf)">
     <use xlink:href="#me0e13740b1" x="205.736182" y="134.465016" style="fill: #ffb482; fill-opacity: 0.5; stroke: #ffb482; stroke-width: 1.5"/>
    </g>
   </g>
   <g id="PathCollection_13">
    <g clip-path="url(#p24db282cdf)">
     <use xlink:href="#m22d25ebd3c" x="207.278727" y="118.091348" style="fill: #ffb482; fill-opacity: 0.5; stroke: #ffb482; stroke-width: 1.5"/>
    </g>
   </g>
   <g id="PathCollection_14">
    <defs>
     <path id="m6dfe062d72" d="M 0 15.39795 
C 4.083584 15.39795 8.000465 13.775525 10.887995 10.887995 
C 13.775525 8.000465 15.39795 4.083584 15.39795 0 
C 15.39795 -4.083584 13.775525 -8.000465 10.887995 -10.887995 
C 8.000465 -13.775525 4.083584 -15.39795 0 -15.39795 
C -4.083584 -15.39795 -8.000465 -13.775525 -10.887995 -10.887995 
C -13.775525 -8.000465 -15.39795 -4.083584 -15.39795 0 
C -15.39795 4.083584 -13.775525 8.000465 -10.887995 10.887995 
C -8.000465 13.775525 -4.083584 15.39795 0 15.39795 
z
" style="stroke: #ffb482; stroke-width: 1.5"/>
    </defs>
    <g clip-path="url(#p24db282cdf)">
     <use xlink:href="#m6dfe062d72" x="208.821273" y="101.71768" style="fill: #ffb482; fill-opacity: 0.5; stroke: #ffb482; stroke-width: 1.5"/>
    </g>
   </g>
   <g id="PathCollection_15">
    <defs>
     <path id="m5125c69eb7" d="M 0 17.487503 
C 4.63774 17.487503 9.086155 15.64491 12.365532 12.365532 
C 15.64491 9.086155 17.487503 4.63774 17.487503 0 
C 17.487503 -4.63774 15.64491 -9.086155 12.365532 -12.365532 
C 9.086155 -15.64491 4.63774 -17.487503 0 -17.487503 
C -4.63774 -17.487503 -9.086155 -15.64491 -12.365532 -12.365532 
C -15.64491 -9.086155 -17.487503 -4.63774 -17.487503 0 
C -17.487503 4.63774 -15.64491 9.086155 -12.365532 12.365532 
C -9.086155 15.64491 -4.63774 17.487503 0 17.487503 
z
" style="stroke: #ffb482; stroke-width: 1.5"/>
    </defs>
    <g clip-path="url(#p24db282cdf)">
     <use xlink:href="#m5125c69eb7" x="209.335455" y="104.992414" style="fill: #ffb482; fill-opacity: 0.5; stroke: #ffb482; stroke-width: 1.5"/>
    </g>
   </g>
   <g id="PathCollection_16">
    <g clip-path="url(#p24db282cdf)">
     <use xlink:href="#m4aa11b5674" x="211.392182" y="96.80558" style="fill: #ffb482; fill-opacity: 0.5; stroke: #ffb482; stroke-width: 1.5"/>
    </g>
   </g>
   <g id="PathCollection_17">
    <g clip-path="url(#p24db282cdf)">
     <use xlink:href="#mf400282fab" x="211.392182" y="65.695611" style="fill: #ffb482; fill-opacity: 0.5; stroke: #ffb482; stroke-width: 1.5"/>
    </g>
   </g>
   <g id="PathCollection_18">
    <defs>
     <path id="m4017720230" d="M 0 12.858563 
C 3.410131 12.858563 6.68105 11.503704 9.092377 9.092377 
C 11.503704 6.68105 12.858563 3.410131 12.858563 0 
C 12.858563 -3.410131 11.503704 -6.68105 9.092377 -9.092377 
C 6.68105 -11.503704 3.410131 -12.858563 0 -12.858563 
C -3.410131 -12.858563 -6.68105 -11.503704 -9.092377 -9.092377 
C -11.503704 -6.68105 -12.858563 -3.410131 -12.858563 0 
C -12.858563 3.410131 -11.503704 6.68105 -9.092377 9.092377 
C -6.68105 11.503704 -3.410131 12.858563 0 12.858563 
z
" style="stroke: #ffb482; stroke-width: 1.5"/>
    </defs>
    <g clip-path="url(#p24db282cdf)">
     <use xlink:href="#m4017720230" x="217.562364" y="54.234044" style="fill: #ffb482; fill-opacity: 0.5; stroke: #ffb482; stroke-width: 1.5"/>
    </g>
   </g>
   <g id="PathCollection_19">
    <g clip-path="url(#p24db282cdf)">
     <use xlink:href="#mdd460712cb" x="243.785636" y="60.783511" style="fill: #ffb482; fill-opacity: 0.5; stroke: #ffb482; stroke-width: 1.5"/>
    </g>
   </g>
   <g id="PathCollection_20">
    <g clip-path="url(#p24db282cdf)">
     <use xlink:href="#ma1a5a4ce19" x="263.324545" y="54.234044" style="fill: #ffb482; fill-opacity: 0.5; stroke: #ffb482; stroke-width: 1.5"/>
    </g>
   </g>
   <g id="PathCollection_21">
    <g clip-path="url(#p24db282cdf)">
     <use xlink:href="#ma1a5a4ce19" x="417.579091" y="37.860376" style="fill: #ffb482; fill-opacity: 0.5; stroke: #ffb482; stroke-width: 1.5"/>
    </g>
   </g>
   <g id="PathCollection_22">
    <defs>
     <path id="mc82a655872" d="M 0 11.571672 
C 3.068843 11.571672 6.012408 10.352408 8.182408 8.182408 
C 10.352408 6.012408 11.571672 3.068843 11.571672 0 
C 11.571672 -3.068843 10.352408 -6.012408 8.182408 -8.182408 
C 6.012408 -10.352408 3.068843 -11.571672 0 -11.571672 
C -3.068843 -11.571672 -6.012408 -10.352408 -8.182408 -8.182408 
C -10.352408 -6.012408 -11.571672 -3.068843 -11.571672 0 
C -11.571672 3.068843 -10.352408 6.012408 -8.182408 8.182408 
C -6.012408 10.352408 -3.068843 11.571672 0 11.571672 
z
" style="stroke: #0000ff; stroke-width: 1.5"/>
    </defs>
    <g clip-path="url(#p24db282cdf)">
     <use xlink:href="#mc82a655872" x="133.750727" y="70.607712" style="fill: #0000ff; fill-opacity: 0.5; stroke: #0000ff; stroke-width: 1.5"/>
    </g>
   </g>
   <g id="PathCollection_23">
    <g clip-path="url(#p24db282cdf)">
     <use xlink:href="#mc82a655872" x="213.448909" y="49.321944" style="fill: #0000ff; fill-opacity: 0.5; stroke: #0000ff; stroke-width: 1.5"/>
    </g>
   </g>
   <g id="PathCollection_24">
    <g clip-path="url(#p24db282cdf)">
     <use xlink:href="#mc82a655872" x="420.15" y="31.310909" style="fill: #0000ff; fill-opacity: 0.5; stroke: #0000ff; stroke-width: 1.5"/>
    </g>
   </g>
   <g id="patch_3">
    <path d="M 358.448182 174.580502 
L 425.291818 174.580502 
L 425.291818 100.898997 
L 358.448182 100.898997 
z
" clip-path="url(#p24db282cdf)" style="fill: #e6e6e6; stroke: #808080"/>
   </g>
   <g id="PathCollection_25">
    <defs>
     <path id="mb347a12529" d="M 0 24.084126 
C 6.387185 24.084126 12.513627 21.546471 17.030049 17.030049 
C 21.546471 12.513627 24.084126 6.387185 24.084126 0 
C 24.084126 -6.387185 21.546471 -12.513627 17.030049 -17.030049 
C 12.513627 -21.546471 6.387185 -24.084126 0 -24.084126 
C -6.387185 -24.084126 -12.513627 -21.546471 -17.030049 -17.030049 
C -21.546471 -12.513627 -24.084126 -6.387185 -24.084126 0 
C -24.084126 6.387185 -21.546471 12.513627 -17.030049 17.030049 
C -12.513627 21.546471 -6.387185 24.084126 0 24.084126 
z
" style="stroke: #000000"/>
    </defs>
    <g clip-path="url(#p24db282cdf)">
     <use xlink:href="#mb347a12529" x="391.87" y="144.289216" style="fill: #cccccc; stroke: #000000"/>
    </g>
   </g>
   <g id="PathCollection_26">
    <defs>
     <path id="m8e1f1922c4" d="M 0 18.702583 
C 4.959983 18.702583 9.717486 16.731961 13.224723 13.224723 
C 16.731961 9.717486 18.702583 4.959983 18.702583 0 
C 18.702583 -4.959983 16.731961 -9.717486 13.224723 -13.224723 
C 9.717486 -16.731961 4.959983 -18.702583 0 -18.702583 
C -4.959983 -18.702583 -9.717486 -16.731961 -13.224723 -13.224723 
C -16.731961 -9.717486 -18.702583 -4.959983 -18.702583 0 
C -18.702583 4.959983 -16.731961 9.717486 -13.224723 13.224723 
C -9.717486 16.731961 -4.959983 18.702583 0 18.702583 
z
" style="stroke: #000000"/>
    </defs>
    <g clip-path="url(#p24db282cdf)">
     <use xlink:href="#m8e1f1922c4" x="391.87" y="139.377116" style="fill: #cccccc; stroke: #000000"/>
    </g>
   </g>
   <g id="PathCollection_27">
    <defs>
     <path id="mce65f242e2" d="M 0 10.932891 
C 2.899437 10.932891 5.68051 9.780933 7.730721 7.730721 
C 9.780933 5.68051 10.932891 2.899437 10.932891 0 
C 10.932891 -2.899437 9.780933 -5.68051 7.730721 -7.730721 
C 5.68051 -9.780933 2.899437 -10.932891 0 -10.932891 
C -2.899437 -10.932891 -5.68051 -9.780933 -7.730721 -7.730721 
C -9.780933 -5.68051 -10.932891 -2.899437 -10.932891 0 
C -10.932891 2.899437 -9.780933 5.68051 -7.730721 7.730721 
C -5.68051 9.780933 -2.899437 10.932891 0 10.932891 
z
" style="stroke: #000000"/>
    </defs>
    <g clip-path="url(#p24db282cdf)">
     <use xlink:href="#mce65f242e2" x="391.87" y="132.008966" style="fill: #cccccc; stroke: #000000"/>
    </g>
   </g>
   <g id="matplotlib.axis_1">
    <g id="xtick_1">
     <g id="line2d_1">
      <path d="M 109.07 280.6 
L 109.07 19.44 
" clip-path="url(#p24db282cdf)" style="fill: none; stroke-dasharray: 2.96,1.28; stroke-dashoffset: 0; stroke: #808080; stroke-width: 0.8"/>
     </g>
     <g id="line2d_2">
      <defs>
       <path id="mf9f659c7e7" d="M 0 0 
L 0 3.5 
" style="stroke: #000000; stroke-width: 0.8"/>
      </defs>
      <g>
       <use xlink:href="#mf9f659c7e7" x="109.07" y="280.6" style="stroke: #000000; stroke-width: 0.8"/>
      </g>
     </g>
     <g id="text_1">
      <!-- 400 -->
      <g transform="translate(91.89125 301.277187) scale(0.18 -0.18)">
       <defs>
        <path id="DejaVuSans-34" d="M 2419 4116 
L 825 1625 
L 2419 1625 
L 2419 4116 
z
M 2253 4666 
L 3047 4666 
L 3047 1625 
L 3713 1625 
L 3713 1100 
L 3047 1100 
L 3047 0 
L 2419 0 
L 2419 1100 
L 313 1100 
L 313 1709 
L 2253 4666 
z
" transform="scale(0.015625)"/>
        <path id="DejaVuSans-30" d="M 2034 4250 
Q 1547 4250 1301 3770 
Q 1056 3291 1056 2328 
Q 1056 1369 1301 889 
Q 1547 409 2034 409 
Q 2525 409 2770 889 
Q 3016 1369 3016 2328 
Q 3016 3291 2770 3770 
Q 2525 4250 2034 4250 
z
M 2034 4750 
Q 2819 4750 3233 4129 
Q 3647 3509 3647 2328 
Q 3647 1150 3233 529 
Q 2819 -91 2034 -91 
Q 1250 -91 836 529 
Q 422 1150 422 2328 
Q 422 3509 836 4129 
Q 1250 4750 2034 4750 
z
" transform="scale(0.015625)"/>
       </defs>
       <use xlink:href="#DejaVuSans-34"/>
       <use xlink:href="#DejaVuSans-30" x="63.623047"/>
       <use xlink:href="#DejaVuSans-30" x="127.246094"/>
      </g>
     </g>
    </g>
    <g id="xtick_2">
     <g id="line2d_3">
      <path d="M 211.906364 280.6 
L 211.906364 19.44 
" clip-path="url(#p24db282cdf)" style="fill: none; stroke-dasharray: 2.96,1.28; stroke-dashoffset: 0; stroke: #808080; stroke-width: 0.8"/>
     </g>
     <g id="line2d_4">
      <g>
       <use xlink:href="#mf9f659c7e7" x="211.906364" y="280.6" style="stroke: #000000; stroke-width: 0.8"/>
      </g>
     </g>
     <g id="text_2">
      <!-- 600 -->
      <g transform="translate(194.727614 301.277187) scale(0.18 -0.18)">
       <defs>
        <path id="DejaVuSans-36" d="M 2113 2584 
Q 1688 2584 1439 2293 
Q 1191 2003 1191 1497 
Q 1191 994 1439 701 
Q 1688 409 2113 409 
Q 2538 409 2786 701 
Q 3034 994 3034 1497 
Q 3034 2003 2786 2293 
Q 2538 2584 2113 2584 
z
M 3366 4563 
L 3366 3988 
Q 3128 4100 2886 4159 
Q 2644 4219 2406 4219 
Q 1781 4219 1451 3797 
Q 1122 3375 1075 2522 
Q 1259 2794 1537 2939 
Q 1816 3084 2150 3084 
Q 2853 3084 3261 2657 
Q 3669 2231 3669 1497 
Q 3669 778 3244 343 
Q 2819 -91 2113 -91 
Q 1303 -91 875 529 
Q 447 1150 447 2328 
Q 447 3434 972 4092 
Q 1497 4750 2381 4750 
Q 2619 4750 2861 4703 
Q 3103 4656 3366 4563 
z
" transform="scale(0.015625)"/>
       </defs>
       <use xlink:href="#DejaVuSans-36"/>
       <use xlink:href="#DejaVuSans-30" x="63.623047"/>
       <use xlink:href="#DejaVuSans-30" x="127.246094"/>
      </g>
     </g>
    </g>
    <g id="xtick_3">
     <g id="line2d_5">
      <path d="M 314.742727 280.6 
L 314.742727 19.44 
" clip-path="url(#p24db282cdf)" style="fill: none; stroke-dasharray: 2.96,1.28; stroke-dashoffset: 0; stroke: #808080; stroke-width: 0.8"/>
     </g>
     <g id="line2d_6">
      <g>
       <use xlink:href="#mf9f659c7e7" x="314.742727" y="280.6" style="stroke: #000000; stroke-width: 0.8"/>
      </g>
     </g>
     <g id="text_3">
      <!-- 800 -->
      <g transform="translate(297.563977 301.277187) scale(0.18 -0.18)">
       <defs>
        <path id="DejaVuSans-38" d="M 2034 2216 
Q 1584 2216 1326 1975 
Q 1069 1734 1069 1313 
Q 1069 891 1326 650 
Q 1584 409 2034 409 
Q 2484 409 2743 651 
Q 3003 894 3003 1313 
Q 3003 1734 2745 1975 
Q 2488 2216 2034 2216 
z
M 1403 2484 
Q 997 2584 770 2862 
Q 544 3141 544 3541 
Q 544 4100 942 4425 
Q 1341 4750 2034 4750 
Q 2731 4750 3128 4425 
Q 3525 4100 3525 3541 
Q 3525 3141 3298 2862 
Q 3072 2584 2669 2484 
Q 3125 2378 3379 2068 
Q 3634 1759 3634 1313 
Q 3634 634 3220 271 
Q 2806 -91 2034 -91 
Q 1263 -91 848 271 
Q 434 634 434 1313 
Q 434 1759 690 2068 
Q 947 2378 1403 2484 
z
M 1172 3481 
Q 1172 3119 1398 2916 
Q 1625 2713 2034 2713 
Q 2441 2713 2670 2916 
Q 2900 3119 2900 3481 
Q 2900 3844 2670 4047 
Q 2441 4250 2034 4250 
Q 1625 4250 1398 4047 
Q 1172 3844 1172 3481 
z
" transform="scale(0.015625)"/>
       </defs>
       <use xlink:href="#DejaVuSans-38"/>
       <use xlink:href="#DejaVuSans-30" x="63.623047"/>
       <use xlink:href="#DejaVuSans-30" x="127.246094"/>
      </g>
     </g>
    </g>
    <g id="xtick_4">
     <g id="line2d_7">
      <path d="M 417.579091 280.6 
L 417.579091 19.44 
" clip-path="url(#p24db282cdf)" style="fill: none; stroke-dasharray: 2.96,1.28; stroke-dashoffset: 0; stroke: #808080; stroke-width: 0.8"/>
     </g>
     <g id="line2d_8">
      <g>
       <use xlink:href="#mf9f659c7e7" x="417.579091" y="280.6" style="stroke: #000000; stroke-width: 0.8"/>
      </g>
     </g>
     <g id="text_4">
      <!-- 1000 -->
      <g transform="translate(394.674091 301.277187) scale(0.18 -0.18)">
       <defs>
        <path id="DejaVuSans-31" d="M 794 531 
L 1825 531 
L 1825 4091 
L 703 3866 
L 703 4441 
L 1819 4666 
L 2450 4666 
L 2450 531 
L 3481 531 
L 3481 0 
L 794 0 
L 794 531 
z
" transform="scale(0.015625)"/>
       </defs>
       <use xlink:href="#DejaVuSans-31"/>
       <use xlink:href="#DejaVuSans-30" x="63.623047"/>
       <use xlink:href="#DejaVuSans-30" x="127.246094"/>
       <use xlink:href="#DejaVuSans-30" x="190.869141"/>
      </g>
     </g>
    </g>
    <g id="text_5">
     <!-- FLOPs -->
     <g transform="translate(237.702812 322.697812) scale(0.18 -0.18)">
      <defs>
       <path id="DejaVuSans-46" d="M 628 4666 
L 3309 4666 
L 3309 4134 
L 1259 4134 
L 1259 2759 
L 3109 2759 
L 3109 2228 
L 1259 2228 
L 1259 0 
L 628 0 
L 628 4666 
z
" transform="scale(0.015625)"/>
       <path id="DejaVuSans-4c" d="M 628 4666 
L 1259 4666 
L 1259 531 
L 3531 531 
L 3531 0 
L 628 0 
L 628 4666 
z
" transform="scale(0.015625)"/>
       <path id="DejaVuSans-4f" d="M 2522 4238 
Q 1834 4238 1429 3725 
Q 1025 3213 1025 2328 
Q 1025 1447 1429 934 
Q 1834 422 2522 422 
Q 3209 422 3611 934 
Q 4013 1447 4013 2328 
Q 4013 3213 3611 3725 
Q 3209 4238 2522 4238 
z
M 2522 4750 
Q 3503 4750 4090 4092 
Q 4678 3434 4678 2328 
Q 4678 1225 4090 567 
Q 3503 -91 2522 -91 
Q 1538 -91 948 565 
Q 359 1222 359 2328 
Q 359 3434 948 4092 
Q 1538 4750 2522 4750 
z
" transform="scale(0.015625)"/>
       <path id="DejaVuSans-50" d="M 1259 4147 
L 1259 2394 
L 2053 2394 
Q 2494 2394 2734 2622 
Q 2975 2850 2975 3272 
Q 2975 3691 2734 3919 
Q 2494 4147 2053 4147 
L 1259 4147 
z
M 628 4666 
L 2053 4666 
Q 2838 4666 3239 4311 
Q 3641 3956 3641 3272 
Q 3641 2581 3239 2228 
Q 2838 1875 2053 1875 
L 1259 1875 
L 1259 0 
L 628 0 
L 628 4666 
z
" transform="scale(0.015625)"/>
       <path id="DejaVuSans-73" d="M 2834 3397 
L 2834 2853 
Q 2591 2978 2328 3040 
Q 2066 3103 1784 3103 
Q 1356 3103 1142 2972 
Q 928 2841 928 2578 
Q 928 2378 1081 2264 
Q 1234 2150 1697 2047 
L 1894 2003 
Q 2506 1872 2764 1633 
Q 3022 1394 3022 966 
Q 3022 478 2636 193 
Q 2250 -91 1575 -91 
Q 1294 -91 989 -36 
Q 684 19 347 128 
L 347 722 
Q 666 556 975 473 
Q 1284 391 1588 391 
Q 1994 391 2212 530 
Q 2431 669 2431 922 
Q 2431 1156 2273 1281 
Q 2116 1406 1581 1522 
L 1381 1569 
Q 847 1681 609 1914 
Q 372 2147 372 2553 
Q 372 3047 722 3315 
Q 1072 3584 1716 3584 
Q 2034 3584 2315 3537 
Q 2597 3491 2834 3397 
z
" transform="scale(0.015625)"/>
      </defs>
      <use xlink:href="#DejaVuSans-46"/>
      <use xlink:href="#DejaVuSans-4c" x="57.519531"/>
      <use xlink:href="#DejaVuSans-4f" x="109.607422"/>
      <use xlink:href="#DejaVuSans-50" x="188.318359"/>
      <use xlink:href="#DejaVuSans-73" x="246.871094"/>
     </g>
    </g>
   </g>
   <g id="matplotlib.axis_2">
    <g id="ytick_1">
     <g id="line2d_9">
      <path d="M 87.86 244.168589 
L 441.36 244.168589 
" clip-path="url(#p24db282cdf)" style="fill: none; stroke-dasharray: 2.96,1.28; stroke-dashoffset: 0; stroke: #808080; stroke-width: 0.8"/>
     </g>
     <g id="line2d_10">
      <defs>
       <path id="mefdd4d3934" d="M 0 0 
L -3.5 0 
" style="stroke: #000000; stroke-width: 0.8"/>
      </defs>
      <g>
       <use xlink:href="#mefdd4d3934" x="87.86" y="244.168589" style="stroke: #000000; stroke-width: 0.8"/>
      </g>
     </g>
     <g id="text_6">
      <!-- 67.5 -->
      <g transform="translate(40.781875 251.007183) scale(0.18 -0.18)">
       <defs>
        <path id="DejaVuSans-37" d="M 525 4666 
L 3525 4666 
L 3525 4397 
L 1831 0 
L 1172 0 
L 2766 4134 
L 525 4134 
L 525 4666 
z
" transform="scale(0.015625)"/>
        <path id="DejaVuSans-2e" d="M 684 794 
L 1344 794 
L 1344 0 
L 684 0 
L 684 794 
z
" transform="scale(0.015625)"/>
        <path id="DejaVuSans-35" d="M 691 4666 
L 3169 4666 
L 3169 4134 
L 1269 4134 
L 1269 2991 
Q 1406 3038 1543 3061 
Q 1681 3084 1819 3084 
Q 2600 3084 3056 2656 
Q 3513 2228 3513 1497 
Q 3513 744 3044 326 
Q 2575 -91 1722 -91 
Q 1428 -91 1123 -41 
Q 819 9 494 109 
L 494 744 
Q 775 591 1075 516 
Q 1375 441 1709 441 
Q 2250 441 2565 725 
Q 2881 1009 2881 1497 
Q 2881 1984 2565 2268 
Q 2250 2553 1709 2553 
Q 1456 2553 1204 2497 
Q 953 2441 691 2322 
L 691 4666 
z
" transform="scale(0.015625)"/>
       </defs>
       <use xlink:href="#DejaVuSans-36"/>
       <use xlink:href="#DejaVuSans-37" x="63.623047"/>
       <use xlink:href="#DejaVuSans-2e" x="127.246094"/>
       <use xlink:href="#DejaVuSans-35" x="159.033203"/>
      </g>
     </g>
    </g>
    <g id="ytick_2">
     <g id="line2d_11">
      <path d="M 87.86 203.23442 
L 441.36 203.23442 
" clip-path="url(#p24db282cdf)" style="fill: none; stroke-dasharray: 2.96,1.28; stroke-dashoffset: 0; stroke: #808080; stroke-width: 0.8"/>
     </g>
     <g id="line2d_12">
      <g>
       <use xlink:href="#mefdd4d3934" x="87.86" y="203.23442" style="stroke: #000000; stroke-width: 0.8"/>
      </g>
     </g>
     <g id="text_7">
      <!-- 70.0 -->
      <g transform="translate(40.781875 210.073014) scale(0.18 -0.18)">
       <use xlink:href="#DejaVuSans-37"/>
       <use xlink:href="#DejaVuSans-30" x="63.623047"/>
       <use xlink:href="#DejaVuSans-2e" x="127.246094"/>
       <use xlink:href="#DejaVuSans-30" x="159.033203"/>
      </g>
     </g>
    </g>
    <g id="ytick_3">
     <g id="line2d_13">
      <path d="M 87.86 162.300251 
L 441.36 162.300251 
" clip-path="url(#p24db282cdf)" style="fill: none; stroke-dasharray: 2.96,1.28; stroke-dashoffset: 0; stroke: #808080; stroke-width: 0.8"/>
     </g>
     <g id="line2d_14">
      <g>
       <use xlink:href="#mefdd4d3934" x="87.86" y="162.300251" style="stroke: #000000; stroke-width: 0.8"/>
      </g>
     </g>
     <g id="text_8">
      <!-- 72.5 -->
      <g transform="translate(40.781875 169.138845) scale(0.18 -0.18)">
       <defs>
        <path id="DejaVuSans-32" d="M 1228 531 
L 3431 531 
L 3431 0 
L 469 0 
L 469 531 
Q 828 903 1448 1529 
Q 2069 2156 2228 2338 
Q 2531 2678 2651 2914 
Q 2772 3150 2772 3378 
Q 2772 3750 2511 3984 
Q 2250 4219 1831 4219 
Q 1534 4219 1204 4116 
Q 875 4013 500 3803 
L 500 4441 
Q 881 4594 1212 4672 
Q 1544 4750 1819 4750 
Q 2544 4750 2975 4387 
Q 3406 4025 3406 3419 
Q 3406 3131 3298 2873 
Q 3191 2616 2906 2266 
Q 2828 2175 2409 1742 
Q 1991 1309 1228 531 
z
" transform="scale(0.015625)"/>
       </defs>
       <use xlink:href="#DejaVuSans-37"/>
       <use xlink:href="#DejaVuSans-32" x="63.623047"/>
       <use xlink:href="#DejaVuSans-2e" x="127.246094"/>
       <use xlink:href="#DejaVuSans-35" x="159.033203"/>
      </g>
     </g>
    </g>
    <g id="ytick_4">
     <g id="line2d_15">
      <path d="M 87.86 121.366082 
L 441.36 121.366082 
" clip-path="url(#p24db282cdf)" style="fill: none; stroke-dasharray: 2.96,1.28; stroke-dashoffset: 0; stroke: #808080; stroke-width: 0.8"/>
     </g>
     <g id="line2d_16">
      <g>
       <use xlink:href="#mefdd4d3934" x="87.86" y="121.366082" style="stroke: #000000; stroke-width: 0.8"/>
      </g>
     </g>
     <g id="text_9">
      <!-- 75.0 -->
      <g transform="translate(40.781875 128.204675) scale(0.18 -0.18)">
       <use xlink:href="#DejaVuSans-37"/>
       <use xlink:href="#DejaVuSans-35" x="63.623047"/>
       <use xlink:href="#DejaVuSans-2e" x="127.246094"/>
       <use xlink:href="#DejaVuSans-30" x="159.033203"/>
      </g>
     </g>
    </g>
    <g id="ytick_5">
     <g id="line2d_17">
      <path d="M 87.86 80.431912 
L 441.36 80.431912 
" clip-path="url(#p24db282cdf)" style="fill: none; stroke-dasharray: 2.96,1.28; stroke-dashoffset: 0; stroke: #808080; stroke-width: 0.8"/>
     </g>
     <g id="line2d_18">
      <g>
       <use xlink:href="#mefdd4d3934" x="87.86" y="80.431912" style="stroke: #000000; stroke-width: 0.8"/>
      </g>
     </g>
     <g id="text_10">
      <!-- 77.5 -->
      <g transform="translate(40.781875 87.270506) scale(0.18 -0.18)">
       <use xlink:href="#DejaVuSans-37"/>
       <use xlink:href="#DejaVuSans-37" x="63.623047"/>
       <use xlink:href="#DejaVuSans-2e" x="127.246094"/>
       <use xlink:href="#DejaVuSans-35" x="159.033203"/>
      </g>
     </g>
    </g>
    <g id="ytick_6">
     <g id="line2d_19">
      <path d="M 87.86 39.497743 
L 441.36 39.497743 
" clip-path="url(#p24db282cdf)" style="fill: none; stroke-dasharray: 2.96,1.28; stroke-dashoffset: 0; stroke: #808080; stroke-width: 0.8"/>
     </g>
     <g id="line2d_20">
      <g>
       <use xlink:href="#mefdd4d3934" x="87.86" y="39.497743" style="stroke: #000000; stroke-width: 0.8"/>
      </g>
     </g>
     <g id="text_11">
      <!-- 80.0 -->
      <g transform="translate(40.781875 46.336337) scale(0.18 -0.18)">
       <use xlink:href="#DejaVuSans-38"/>
       <use xlink:href="#DejaVuSans-30" x="63.623047"/>
       <use xlink:href="#DejaVuSans-2e" x="127.246094"/>
       <use xlink:href="#DejaVuSans-30" x="159.033203"/>
      </g>
     </g>
    </g>
    <g id="text_12">
     <!-- Top-1 Test Accuarcy (ImageNet) -->
     <g transform="translate(33.038438 292.381719) rotate(-90) scale(0.18 -0.18)">
      <defs>
       <path id="DejaVuSans-54" d="M -19 4666 
L 3928 4666 
L 3928 4134 
L 2272 4134 
L 2272 0 
L 1638 0 
L 1638 4134 
L -19 4134 
L -19 4666 
z
" transform="scale(0.015625)"/>
       <path id="DejaVuSans-6f" d="M 1959 3097 
Q 1497 3097 1228 2736 
Q 959 2375 959 1747 
Q 959 1119 1226 758 
Q 1494 397 1959 397 
Q 2419 397 2687 759 
Q 2956 1122 2956 1747 
Q 2956 2369 2687 2733 
Q 2419 3097 1959 3097 
z
M 1959 3584 
Q 2709 3584 3137 3096 
Q 3566 2609 3566 1747 
Q 3566 888 3137 398 
Q 2709 -91 1959 -91 
Q 1206 -91 779 398 
Q 353 888 353 1747 
Q 353 2609 779 3096 
Q 1206 3584 1959 3584 
z
" transform="scale(0.015625)"/>
       <path id="DejaVuSans-70" d="M 1159 525 
L 1159 -1331 
L 581 -1331 
L 581 3500 
L 1159 3500 
L 1159 2969 
Q 1341 3281 1617 3432 
Q 1894 3584 2278 3584 
Q 2916 3584 3314 3078 
Q 3713 2572 3713 1747 
Q 3713 922 3314 415 
Q 2916 -91 2278 -91 
Q 1894 -91 1617 61 
Q 1341 213 1159 525 
z
M 3116 1747 
Q 3116 2381 2855 2742 
Q 2594 3103 2138 3103 
Q 1681 3103 1420 2742 
Q 1159 2381 1159 1747 
Q 1159 1113 1420 752 
Q 1681 391 2138 391 
Q 2594 391 2855 752 
Q 3116 1113 3116 1747 
z
" transform="scale(0.015625)"/>
       <path id="DejaVuSans-2d" d="M 313 2009 
L 1997 2009 
L 1997 1497 
L 313 1497 
L 313 2009 
z
" transform="scale(0.015625)"/>
       <path id="DejaVuSans-20" transform="scale(0.015625)"/>
       <path id="DejaVuSans-65" d="M 3597 1894 
L 3597 1613 
L 953 1613 
Q 991 1019 1311 708 
Q 1631 397 2203 397 
Q 2534 397 2845 478 
Q 3156 559 3463 722 
L 3463 178 
Q 3153 47 2828 -22 
Q 2503 -91 2169 -91 
Q 1331 -91 842 396 
Q 353 884 353 1716 
Q 353 2575 817 3079 
Q 1281 3584 2069 3584 
Q 2775 3584 3186 3129 
Q 3597 2675 3597 1894 
z
M 3022 2063 
Q 3016 2534 2758 2815 
Q 2500 3097 2075 3097 
Q 1594 3097 1305 2825 
Q 1016 2553 972 2059 
L 3022 2063 
z
" transform="scale(0.015625)"/>
       <path id="DejaVuSans-74" d="M 1172 4494 
L 1172 3500 
L 2356 3500 
L 2356 3053 
L 1172 3053 
L 1172 1153 
Q 1172 725 1289 603 
Q 1406 481 1766 481 
L 2356 481 
L 2356 0 
L 1766 0 
Q 1100 0 847 248 
Q 594 497 594 1153 
L 594 3053 
L 172 3053 
L 172 3500 
L 594 3500 
L 594 4494 
L 1172 4494 
z
" transform="scale(0.015625)"/>
       <path id="DejaVuSans-41" d="M 2188 4044 
L 1331 1722 
L 3047 1722 
L 2188 4044 
z
M 1831 4666 
L 2547 4666 
L 4325 0 
L 3669 0 
L 3244 1197 
L 1141 1197 
L 716 0 
L 50 0 
L 1831 4666 
z
" transform="scale(0.015625)"/>
       <path id="DejaVuSans-63" d="M 3122 3366 
L 3122 2828 
Q 2878 2963 2633 3030 
Q 2388 3097 2138 3097 
Q 1578 3097 1268 2742 
Q 959 2388 959 1747 
Q 959 1106 1268 751 
Q 1578 397 2138 397 
Q 2388 397 2633 464 
Q 2878 531 3122 666 
L 3122 134 
Q 2881 22 2623 -34 
Q 2366 -91 2075 -91 
Q 1284 -91 818 406 
Q 353 903 353 1747 
Q 353 2603 823 3093 
Q 1294 3584 2113 3584 
Q 2378 3584 2631 3529 
Q 2884 3475 3122 3366 
z
" transform="scale(0.015625)"/>
       <path id="DejaVuSans-75" d="M 544 1381 
L 544 3500 
L 1119 3500 
L 1119 1403 
Q 1119 906 1312 657 
Q 1506 409 1894 409 
Q 2359 409 2629 706 
Q 2900 1003 2900 1516 
L 2900 3500 
L 3475 3500 
L 3475 0 
L 2900 0 
L 2900 538 
Q 2691 219 2414 64 
Q 2138 -91 1772 -91 
Q 1169 -91 856 284 
Q 544 659 544 1381 
z
M 1991 3584 
L 1991 3584 
z
" transform="scale(0.015625)"/>
       <path id="DejaVuSans-61" d="M 2194 1759 
Q 1497 1759 1228 1600 
Q 959 1441 959 1056 
Q 959 750 1161 570 
Q 1363 391 1709 391 
Q 2188 391 2477 730 
Q 2766 1069 2766 1631 
L 2766 1759 
L 2194 1759 
z
M 3341 1997 
L 3341 0 
L 2766 0 
L 2766 531 
Q 2569 213 2275 61 
Q 1981 -91 1556 -91 
Q 1019 -91 701 211 
Q 384 513 384 1019 
Q 384 1609 779 1909 
Q 1175 2209 1959 2209 
L 2766 2209 
L 2766 2266 
Q 2766 2663 2505 2880 
Q 2244 3097 1772 3097 
Q 1472 3097 1187 3025 
Q 903 2953 641 2809 
L 641 3341 
Q 956 3463 1253 3523 
Q 1550 3584 1831 3584 
Q 2591 3584 2966 3190 
Q 3341 2797 3341 1997 
z
" transform="scale(0.015625)"/>
       <path id="DejaVuSans-72" d="M 2631 2963 
Q 2534 3019 2420 3045 
Q 2306 3072 2169 3072 
Q 1681 3072 1420 2755 
Q 1159 2438 1159 1844 
L 1159 0 
L 581 0 
L 581 3500 
L 1159 3500 
L 1159 2956 
Q 1341 3275 1631 3429 
Q 1922 3584 2338 3584 
Q 2397 3584 2469 3576 
Q 2541 3569 2628 3553 
L 2631 2963 
z
" transform="scale(0.015625)"/>
       <path id="DejaVuSans-79" d="M 2059 -325 
Q 1816 -950 1584 -1140 
Q 1353 -1331 966 -1331 
L 506 -1331 
L 506 -850 
L 844 -850 
Q 1081 -850 1212 -737 
Q 1344 -625 1503 -206 
L 1606 56 
L 191 3500 
L 800 3500 
L 1894 763 
L 2988 3500 
L 3597 3500 
L 2059 -325 
z
" transform="scale(0.015625)"/>
       <path id="DejaVuSans-28" d="M 1984 4856 
Q 1566 4138 1362 3434 
Q 1159 2731 1159 2009 
Q 1159 1288 1364 580 
Q 1569 -128 1984 -844 
L 1484 -844 
Q 1016 -109 783 600 
Q 550 1309 550 2009 
Q 550 2706 781 3412 
Q 1013 4119 1484 4856 
L 1984 4856 
z
" transform="scale(0.015625)"/>
       <path id="DejaVuSans-49" d="M 628 4666 
L 1259 4666 
L 1259 0 
L 628 0 
L 628 4666 
z
" transform="scale(0.015625)"/>
       <path id="DejaVuSans-6d" d="M 3328 2828 
Q 3544 3216 3844 3400 
Q 4144 3584 4550 3584 
Q 5097 3584 5394 3201 
Q 5691 2819 5691 2113 
L 5691 0 
L 5113 0 
L 5113 2094 
Q 5113 2597 4934 2840 
Q 4756 3084 4391 3084 
Q 3944 3084 3684 2787 
Q 3425 2491 3425 1978 
L 3425 0 
L 2847 0 
L 2847 2094 
Q 2847 2600 2669 2842 
Q 2491 3084 2119 3084 
Q 1678 3084 1418 2786 
Q 1159 2488 1159 1978 
L 1159 0 
L 581 0 
L 581 3500 
L 1159 3500 
L 1159 2956 
Q 1356 3278 1631 3431 
Q 1906 3584 2284 3584 
Q 2666 3584 2933 3390 
Q 3200 3197 3328 2828 
z
" transform="scale(0.015625)"/>
       <path id="DejaVuSans-67" d="M 2906 1791 
Q 2906 2416 2648 2759 
Q 2391 3103 1925 3103 
Q 1463 3103 1205 2759 
Q 947 2416 947 1791 
Q 947 1169 1205 825 
Q 1463 481 1925 481 
Q 2391 481 2648 825 
Q 2906 1169 2906 1791 
z
M 3481 434 
Q 3481 -459 3084 -895 
Q 2688 -1331 1869 -1331 
Q 1566 -1331 1297 -1286 
Q 1028 -1241 775 -1147 
L 775 -588 
Q 1028 -725 1275 -790 
Q 1522 -856 1778 -856 
Q 2344 -856 2625 -561 
Q 2906 -266 2906 331 
L 2906 616 
Q 2728 306 2450 153 
Q 2172 0 1784 0 
Q 1141 0 747 490 
Q 353 981 353 1791 
Q 353 2603 747 3093 
Q 1141 3584 1784 3584 
Q 2172 3584 2450 3431 
Q 2728 3278 2906 2969 
L 2906 3500 
L 3481 3500 
L 3481 434 
z
" transform="scale(0.015625)"/>
       <path id="DejaVuSans-4e" d="M 628 4666 
L 1478 4666 
L 3547 763 
L 3547 4666 
L 4159 4666 
L 4159 0 
L 3309 0 
L 1241 3903 
L 1241 0 
L 628 0 
L 628 4666 
z
" transform="scale(0.015625)"/>
       <path id="DejaVuSans-29" d="M 513 4856 
L 1013 4856 
Q 1481 4119 1714 3412 
Q 1947 2706 1947 2009 
Q 1947 1309 1714 600 
Q 1481 -109 1013 -844 
L 513 -844 
Q 928 -128 1133 580 
Q 1338 1288 1338 2009 
Q 1338 2731 1133 3434 
Q 928 4138 513 4856 
z
" transform="scale(0.015625)"/>
      </defs>
      <use xlink:href="#DejaVuSans-54"/>
      <use xlink:href="#DejaVuSans-6f" x="44.083984"/>
      <use xlink:href="#DejaVuSans-70" x="105.265625"/>
      <use xlink:href="#DejaVuSans-2d" x="168.742188"/>
      <use xlink:href="#DejaVuSans-31" x="204.826172"/>
      <use xlink:href="#DejaVuSans-20" x="268.449219"/>
      <use xlink:href="#DejaVuSans-54" x="300.236328"/>
      <use xlink:href="#DejaVuSans-65" x="344.320312"/>
      <use xlink:href="#DejaVuSans-73" x="405.84375"/>
      <use xlink:href="#DejaVuSans-74" x="457.943359"/>
      <use xlink:href="#DejaVuSans-20" x="497.152344"/>
      <use xlink:href="#DejaVuSans-41" x="528.939453"/>
      <use xlink:href="#DejaVuSans-63" x="595.597656"/>
      <use xlink:href="#DejaVuSans-63" x="650.578125"/>
      <use xlink:href="#DejaVuSans-75" x="705.558594"/>
      <use xlink:href="#DejaVuSans-61" x="768.9375"/>
      <use xlink:href="#DejaVuSans-72" x="830.216797"/>
      <use xlink:href="#DejaVuSans-63" x="869.080078"/>
      <use xlink:href="#DejaVuSans-79" x="924.060547"/>
      <use xlink:href="#DejaVuSans-20" x="983.240234"/>
      <use xlink:href="#DejaVuSans-28" x="1015.027344"/>
      <use xlink:href="#DejaVuSans-49" x="1054.041016"/>
      <use xlink:href="#DejaVuSans-6d" x="1083.533203"/>
      <use xlink:href="#DejaVuSans-61" x="1180.945312"/>
      <use xlink:href="#DejaVuSans-67" x="1242.224609"/>
      <use xlink:href="#DejaVuSans-65" x="1305.701172"/>
      <use xlink:href="#DejaVuSans-4e" x="1367.224609"/>
      <use xlink:href="#DejaVuSans-65" x="1442.029297"/>
      <use xlink:href="#DejaVuSans-74" x="1503.552734"/>
      <use xlink:href="#DejaVuSans-29" x="1542.761719"/>
     </g>
    </g>
   </g>
   <g id="line2d_21">
    <defs>
     <path id="mf7e2311e64" d="M 0 -3 
L -0.673542 -0.927051 
L -2.85317 -0.927051 
L -1.089814 0.354102 
L -1.763356 2.427051 
L -0 1.145898 
L 1.763356 2.427051 
L 1.089814 0.354102 
L 2.85317 -0.927051 
L 0.673542 -0.927051 
z
" style="stroke: #ffb482; stroke-linejoin: bevel"/>
    </defs>
    <g clip-path="url(#p24db282cdf)">
     <use xlink:href="#mf7e2311e64" x="103.928182" y="86.981379" style="fill: #ffb482; stroke: #ffb482; stroke-linejoin: bevel"/>
     <use xlink:href="#mf7e2311e64" x="112.155091" y="77.157179" style="fill: #ffb482; stroke: #ffb482; stroke-linejoin: bevel"/>
     <use xlink:href="#mf7e2311e64" x="145.062727" y="109.904514" style="fill: #ffb482; stroke: #ffb482; stroke-linejoin: bevel"/>
     <use xlink:href="#mf7e2311e64" x="154.318" y="157.38815" style="fill: #ffb482; stroke: #ffb482; stroke-linejoin: bevel"/>
     <use xlink:href="#mf7e2311e64" x="158.431455" y="149.201317" style="fill: #ffb482; stroke: #ffb482; stroke-linejoin: bevel"/>
     <use xlink:href="#mf7e2311e64" x="161.002364" y="72.245078" style="fill: #ffb482; stroke: #ffb482; stroke-linejoin: bevel"/>
     <use xlink:href="#mf7e2311e64" x="135.293273" y="268.729091" style="fill: #ffb482; stroke: #ffb482; stroke-linejoin: bevel"/>
     <use xlink:href="#mf7e2311e64" x="198.537636" y="149.201317" style="fill: #ffb482; stroke: #ffb482; stroke-linejoin: bevel"/>
     <use xlink:href="#mf7e2311e64" x="203.679455" y="113.179248" style="fill: #ffb482; stroke: #ffb482; stroke-linejoin: bevel"/>
     <use xlink:href="#mf7e2311e64" x="204.707818" y="108.267147" style="fill: #ffb482; stroke: #ffb482; stroke-linejoin: bevel"/>
     <use xlink:href="#mf7e2311e64" x="204.707818" y="47.684577" style="fill: #ffb482; stroke: #ffb482; stroke-linejoin: bevel"/>
     <use xlink:href="#mf7e2311e64" x="205.736182" y="134.465016" style="fill: #ffb482; stroke: #ffb482; stroke-linejoin: bevel"/>
     <use xlink:href="#mf7e2311e64" x="207.278727" y="118.091348" style="fill: #ffb482; stroke: #ffb482; stroke-linejoin: bevel"/>
     <use xlink:href="#mf7e2311e64" x="208.821273" y="101.71768" style="fill: #ffb482; stroke: #ffb482; stroke-linejoin: bevel"/>
     <use xlink:href="#mf7e2311e64" x="209.335455" y="104.992414" style="fill: #ffb482; stroke: #ffb482; stroke-linejoin: bevel"/>
     <use xlink:href="#mf7e2311e64" x="211.392182" y="96.80558" style="fill: #ffb482; stroke: #ffb482; stroke-linejoin: bevel"/>
     <use xlink:href="#mf7e2311e64" x="211.392182" y="65.695611" style="fill: #ffb482; stroke: #ffb482; stroke-linejoin: bevel"/>
     <use xlink:href="#mf7e2311e64" x="217.562364" y="54.234044" style="fill: #ffb482; stroke: #ffb482; stroke-linejoin: bevel"/>
     <use xlink:href="#mf7e2311e64" x="243.785636" y="60.783511" style="fill: #ffb482; stroke: #ffb482; stroke-linejoin: bevel"/>
     <use xlink:href="#mf7e2311e64" x="263.324545" y="54.234044" style="fill: #ffb482; stroke: #ffb482; stroke-linejoin: bevel"/>
     <use xlink:href="#mf7e2311e64" x="417.579091" y="37.860376" style="fill: #ffb482; stroke: #ffb482; stroke-linejoin: bevel"/>
    </g>
   </g>
   <g id="line2d_22">
    <defs>
     <path id="mb1c3d1be4f" d="M 0 -3 
L -0.673542 -0.927051 
L -2.85317 -0.927051 
L -1.089814 0.354102 
L -1.763356 2.427051 
L -0 1.145898 
L 1.763356 2.427051 
L 1.089814 0.354102 
L 2.85317 -0.927051 
L 0.673542 -0.927051 
z
" style="stroke: #0000ff; stroke-linejoin: bevel"/>
    </defs>
    <g clip-path="url(#p24db282cdf)">
     <use xlink:href="#mb1c3d1be4f" x="133.750727" y="70.607712" style="fill: #0000ff; stroke: #0000ff; stroke-linejoin: bevel"/>
     <use xlink:href="#mb1c3d1be4f" x="213.448909" y="49.321944" style="fill: #0000ff; stroke: #0000ff; stroke-linejoin: bevel"/>
     <use xlink:href="#mb1c3d1be4f" x="420.15" y="31.310909" style="fill: #0000ff; stroke: #0000ff; stroke-linejoin: bevel"/>
    </g>
   </g>
   <g id="patch_4">
    <path d="M 87.86 280.6 
L 87.86 19.44 
" style="fill: none; stroke: #000000; stroke-width: 0.8; stroke-linejoin: miter; stroke-linecap: square"/>
   </g>
   <g id="patch_5">
    <path d="M 441.36 280.6 
L 441.36 19.44 
" style="fill: none; stroke: #000000; stroke-width: 0.8; stroke-linejoin: miter; stroke-linecap: square"/>
   </g>
   <g id="patch_6">
    <path d="M 87.86 280.6 
L 441.36 280.6 
" style="fill: none; stroke: #000000; stroke-width: 0.8; stroke-linejoin: miter; stroke-linecap: square"/>
   </g>
   <g id="patch_7">
    <path d="M 87.86 19.44 
L 441.36 19.44 
" style="fill: none; stroke: #000000; stroke-width: 0.8; stroke-linejoin: miter; stroke-linecap: square"/>
   </g>
   <g id="text_13">
    <!-- Cost (GPU hours) -->
    <g transform="translate(361.019091 117.272665) scale(0.08 -0.08)">
     <defs>
      <path id="DejaVuSans-43" d="M 4122 4306 
L 4122 3641 
Q 3803 3938 3442 4084 
Q 3081 4231 2675 4231 
Q 1875 4231 1450 3742 
Q 1025 3253 1025 2328 
Q 1025 1406 1450 917 
Q 1875 428 2675 428 
Q 3081 428 3442 575 
Q 3803 722 4122 1019 
L 4122 359 
Q 3791 134 3420 21 
Q 3050 -91 2638 -91 
Q 1578 -91 968 557 
Q 359 1206 359 2328 
Q 359 3453 968 4101 
Q 1578 4750 2638 4750 
Q 3056 4750 3426 4639 
Q 3797 4528 4122 4306 
z
" transform="scale(0.015625)"/>
      <path id="DejaVuSans-47" d="M 3809 666 
L 3809 1919 
L 2778 1919 
L 2778 2438 
L 4434 2438 
L 4434 434 
Q 4069 175 3628 42 
Q 3188 -91 2688 -91 
Q 1594 -91 976 548 
Q 359 1188 359 2328 
Q 359 3472 976 4111 
Q 1594 4750 2688 4750 
Q 3144 4750 3555 4637 
Q 3966 4525 4313 4306 
L 4313 3634 
Q 3963 3931 3569 4081 
Q 3175 4231 2741 4231 
Q 1884 4231 1454 3753 
Q 1025 3275 1025 2328 
Q 1025 1384 1454 906 
Q 1884 428 2741 428 
Q 3075 428 3337 486 
Q 3600 544 3809 666 
z
" transform="scale(0.015625)"/>
      <path id="DejaVuSans-55" d="M 556 4666 
L 1191 4666 
L 1191 1831 
Q 1191 1081 1462 751 
Q 1734 422 2344 422 
Q 2950 422 3222 751 
Q 3494 1081 3494 1831 
L 3494 4666 
L 4128 4666 
L 4128 1753 
Q 4128 841 3676 375 
Q 3225 -91 2344 -91 
Q 1459 -91 1007 375 
Q 556 841 556 1753 
L 556 4666 
z
" transform="scale(0.015625)"/>
      <path id="DejaVuSans-68" d="M 3513 2113 
L 3513 0 
L 2938 0 
L 2938 2094 
Q 2938 2591 2744 2837 
Q 2550 3084 2163 3084 
Q 1697 3084 1428 2787 
Q 1159 2491 1159 1978 
L 1159 0 
L 581 0 
L 581 4863 
L 1159 4863 
L 1159 2956 
Q 1366 3272 1645 3428 
Q 1925 3584 2291 3584 
Q 2894 3584 3203 3211 
Q 3513 2838 3513 2113 
z
" transform="scale(0.015625)"/>
     </defs>
     <use xlink:href="#DejaVuSans-43"/>
     <use xlink:href="#DejaVuSans-6f" x="69.824219"/>
     <use xlink:href="#DejaVuSans-73" x="131.005859"/>
     <use xlink:href="#DejaVuSans-74" x="183.105469"/>
     <use xlink:href="#DejaVuSans-20" x="222.314453"/>
     <use xlink:href="#DejaVuSans-28" x="254.101562"/>
     <use xlink:href="#DejaVuSans-47" x="293.115234"/>
     <use xlink:href="#DejaVuSans-50" x="370.605469"/>
     <use xlink:href="#DejaVuSans-55" x="430.908203"/>
     <use xlink:href="#DejaVuSans-20" x="504.101562"/>
     <use xlink:href="#DejaVuSans-68" x="535.888672"/>
     <use xlink:href="#DejaVuSans-6f" x="599.267578"/>
     <use xlink:href="#DejaVuSans-75" x="660.449219"/>
     <use xlink:href="#DejaVuSans-72" x="723.828125"/>
     <use xlink:href="#DejaVuSans-73" x="764.941406"/>
     <use xlink:href="#DejaVuSans-29" x="817.041016"/>
    </g>
   </g>
   <g id="text_14">
    <!-- 0.2 -->
    <g transform="translate(386.728182 140.195799) scale(0.08 -0.08)">
     <use xlink:href="#DejaVuSans-30"/>
     <use xlink:href="#DejaVuSans-2e" x="63.623047"/>
     <use xlink:href="#DejaVuSans-32" x="95.410156"/>
    </g>
   </g>
   <g id="text_15">
    <!-- 20 -->
    <g transform="translate(387.756545 154.9321) scale(0.08 -0.08)">
     <use xlink:href="#DejaVuSans-32"/>
     <use xlink:href="#DejaVuSans-30" x="63.623047"/>
    </g>
   </g>
   <g id="text_16">
    <!-- 2K -->
    <g transform="translate(387.756545 164.756301) scale(0.08 -0.08)">
     <defs>
      <path id="DejaVuSans-4b" d="M 628 4666 
L 1259 4666 
L 1259 2694 
L 3353 4666 
L 4166 4666 
L 1850 2491 
L 4331 0 
L 3500 0 
L 1259 2247 
L 1259 0 
L 628 0 
L 628 4666 
z
" transform="scale(0.015625)"/>
     </defs>
     <use xlink:href="#DejaVuSans-32"/>
     <use xlink:href="#DejaVuSans-4b" x="63.623047"/>
    </g>
   </g>
   <g id="legend_1">
    <g id="patch_8">
     <path d="M 236.444062 271.6 
L 428.76 271.6 
Q 432.36 271.6 432.36 268 
L 432.36 216.95875 
Q 432.36 213.35875 428.76 213.35875 
L 236.444062 213.35875 
Q 232.844062 213.35875 232.844062 216.95875 
L 232.844062 268 
Q 232.844062 271.6 236.444062 271.6 
z
" style="fill: #ffffff; opacity: 0.8; stroke: #cccccc; stroke-linejoin: miter"/>
    </g>
    <g id="line2d_23">
     <path d="M 240.044062 227.935937 
L 258.044062 227.935937 
L 276.044062 227.935937 
" style="fill: none; stroke: #ffffff; stroke-width: 1.5; stroke-linecap: square"/>
     <defs>
      <path id="m852bee6545" d="M 0 7 
C 1.856422 7 3.637059 6.262436 4.949747 4.949747 
C 6.262436 3.637059 7 1.856422 7 0 
C 7 -1.856422 6.262436 -3.637059 4.949747 -4.949747 
C 3.637059 -6.262436 1.856422 -7 0 -7 
C -1.856422 -7 -3.637059 -6.262436 -4.949747 -4.949747 
C -6.262436 -3.637059 -7 -1.856422 -7 0 
C -7 1.856422 -6.262436 3.637059 -4.949747 4.949747 
C -3.637059 6.262436 -1.856422 7 0 7 
z
" style="stroke: #ffffff"/>
     </defs>
     <g>
      <use xlink:href="#m852bee6545" x="258.044062" y="227.935937" style="fill: #ffb482; stroke: #ffffff"/>
     </g>
    </g>
    <g id="text_17">
     <!-- Previous works -->
     <g transform="translate(290.444062 234.235937) scale(0.18 -0.18)">
      <defs>
       <path id="DejaVuSans-76" d="M 191 3500 
L 800 3500 
L 1894 563 
L 2988 3500 
L 3597 3500 
L 2284 0 
L 1503 0 
L 191 3500 
z
" transform="scale(0.015625)"/>
       <path id="DejaVuSans-69" d="M 603 3500 
L 1178 3500 
L 1178 0 
L 603 0 
L 603 3500 
z
M 603 4863 
L 1178 4863 
L 1178 4134 
L 603 4134 
L 603 4863 
z
" transform="scale(0.015625)"/>
       <path id="DejaVuSans-77" d="M 269 3500 
L 844 3500 
L 1563 769 
L 2278 3500 
L 2956 3500 
L 3675 769 
L 4391 3500 
L 4966 3500 
L 4050 0 
L 3372 0 
L 2619 2869 
L 1863 0 
L 1184 0 
L 269 3500 
z
" transform="scale(0.015625)"/>
       <path id="DejaVuSans-6b" d="M 581 4863 
L 1159 4863 
L 1159 1991 
L 2875 3500 
L 3609 3500 
L 1753 1863 
L 3688 0 
L 2938 0 
L 1159 1709 
L 1159 0 
L 581 0 
L 581 4863 
z
" transform="scale(0.015625)"/>
      </defs>
      <use xlink:href="#DejaVuSans-50"/>
      <use xlink:href="#DejaVuSans-72" x="58.552734"/>
      <use xlink:href="#DejaVuSans-65" x="97.416016"/>
      <use xlink:href="#DejaVuSans-76" x="158.939453"/>
      <use xlink:href="#DejaVuSans-69" x="218.119141"/>
      <use xlink:href="#DejaVuSans-6f" x="245.902344"/>
      <use xlink:href="#DejaVuSans-75" x="307.083984"/>
      <use xlink:href="#DejaVuSans-73" x="370.462891"/>
      <use xlink:href="#DejaVuSans-20" x="422.5625"/>
      <use xlink:href="#DejaVuSans-77" x="454.349609"/>
      <use xlink:href="#DejaVuSans-6f" x="536.136719"/>
      <use xlink:href="#DejaVuSans-72" x="597.318359"/>
      <use xlink:href="#DejaVuSans-6b" x="638.431641"/>
      <use xlink:href="#DejaVuSans-73" x="696.341797"/>
     </g>
    </g>
    <g id="line2d_24">
     <path d="M 240.044062 254.356562 
L 258.044062 254.356562 
L 276.044062 254.356562 
" style="fill: none; stroke: #ffffff; stroke-width: 1.5; stroke-linecap: square"/>
     <defs>
      <path id="m96fc119997" d="M 0 7 
C 1.856422 7 3.637059 6.262436 4.949747 4.949747 
C 6.262436 3.637059 7 1.856422 7 0 
C 7 -1.856422 6.262436 -3.637059 4.949747 -4.949747 
C 3.637059 -6.262436 1.856422 -7 0 -7 
C -1.856422 -7 -3.637059 -6.262436 -4.949747 -4.949747 
C -6.262436 -3.637059 -7 -1.856422 -7 0 
C -7 1.856422 -6.262436 3.637059 -4.949747 4.949747 
C -3.637059 6.262436 -1.856422 7 0 7 
z
" style="stroke: #ffffff"/>
     </defs>
     <g>
      <use xlink:href="#m96fc119997" x="258.044062" y="254.356562" style="fill: #0000ff; stroke: #ffffff"/>
     </g>
    </g>
    <g id="text_18">
     <!-- $\bf{ZiCo (Ours)}$ -->
     <g transform="translate(290.444062 260.656562) scale(0.18 -0.18)">
      <defs>
       <path id="DejaVuSans-Bold-5a" d="M 359 4666 
L 4281 4666 
L 4281 3938 
L 1778 909 
L 4353 909 
L 4353 0 
L 288 0 
L 288 728 
L 2791 3756 
L 359 3756 
L 359 4666 
z
" transform="scale(0.015625)"/>
       <path id="DejaVuSans-Bold-69" d="M 538 3500 
L 1656 3500 
L 1656 0 
L 538 0 
L 538 3500 
z
M 538 4863 
L 1656 4863 
L 1656 3950 
L 538 3950 
L 538 4863 
z
" transform="scale(0.015625)"/>
       <path id="DejaVuSans-Bold-43" d="M 4288 256 
Q 3956 84 3597 -3 
Q 3238 -91 2847 -91 
Q 1681 -91 1000 561 
Q 319 1213 319 2328 
Q 319 3447 1000 4098 
Q 1681 4750 2847 4750 
Q 3238 4750 3597 4662 
Q 3956 4575 4288 4403 
L 4288 3438 
Q 3953 3666 3628 3772 
Q 3303 3878 2944 3878 
Q 2300 3878 1931 3465 
Q 1563 3053 1563 2328 
Q 1563 1606 1931 1193 
Q 2300 781 2944 781 
Q 3303 781 3628 887 
Q 3953 994 4288 1222 
L 4288 256 
z
" transform="scale(0.015625)"/>
       <path id="DejaVuSans-Bold-6f" d="M 2203 2784 
Q 1831 2784 1636 2517 
Q 1441 2250 1441 1747 
Q 1441 1244 1636 976 
Q 1831 709 2203 709 
Q 2569 709 2762 976 
Q 2956 1244 2956 1747 
Q 2956 2250 2762 2517 
Q 2569 2784 2203 2784 
z
M 2203 3584 
Q 3106 3584 3614 3096 
Q 4122 2609 4122 1747 
Q 4122 884 3614 396 
Q 3106 -91 2203 -91 
Q 1297 -91 786 396 
Q 275 884 275 1747 
Q 275 2609 786 3096 
Q 1297 3584 2203 3584 
z
" transform="scale(0.015625)"/>
       <path id="DejaVuSans-Bold-28" d="M 2413 -844 
L 1484 -844 
Q 1006 -72 778 623 
Q 550 1319 550 2003 
Q 550 2688 779 3389 
Q 1009 4091 1484 4856 
L 2413 4856 
Q 2013 4116 1813 3408 
Q 1613 2700 1613 2009 
Q 1613 1319 1811 609 
Q 2009 -100 2413 -844 
z
" transform="scale(0.015625)"/>
       <path id="DejaVuSans-Bold-4f" d="M 2719 3878 
Q 2169 3878 1866 3472 
Q 1563 3066 1563 2328 
Q 1563 1594 1866 1187 
Q 2169 781 2719 781 
Q 3272 781 3575 1187 
Q 3878 1594 3878 2328 
Q 3878 3066 3575 3472 
Q 3272 3878 2719 3878 
z
M 2719 4750 
Q 3844 4750 4481 4106 
Q 5119 3463 5119 2328 
Q 5119 1197 4481 553 
Q 3844 -91 2719 -91 
Q 1597 -91 958 553 
Q 319 1197 319 2328 
Q 319 3463 958 4106 
Q 1597 4750 2719 4750 
z
" transform="scale(0.015625)"/>
       <path id="DejaVuSans-Bold-75" d="M 500 1363 
L 500 3500 
L 1625 3500 
L 1625 3150 
Q 1625 2866 1622 2436 
Q 1619 2006 1619 1863 
Q 1619 1441 1641 1255 
Q 1663 1069 1716 984 
Q 1784 875 1895 815 
Q 2006 756 2150 756 
Q 2500 756 2700 1025 
Q 2900 1294 2900 1772 
L 2900 3500 
L 4019 3500 
L 4019 0 
L 2900 0 
L 2900 506 
Q 2647 200 2364 54 
Q 2081 -91 1741 -91 
Q 1134 -91 817 281 
Q 500 653 500 1363 
z
" transform="scale(0.015625)"/>
       <path id="DejaVuSans-Bold-72" d="M 3138 2547 
Q 2991 2616 2845 2648 
Q 2700 2681 2553 2681 
Q 2122 2681 1889 2404 
Q 1656 2128 1656 1613 
L 1656 0 
L 538 0 
L 538 3500 
L 1656 3500 
L 1656 2925 
Q 1872 3269 2151 3426 
Q 2431 3584 2822 3584 
Q 2878 3584 2943 3579 
Q 3009 3575 3134 3559 
L 3138 2547 
z
" transform="scale(0.015625)"/>
       <path id="DejaVuSans-Bold-73" d="M 3272 3391 
L 3272 2541 
Q 2913 2691 2578 2766 
Q 2244 2841 1947 2841 
Q 1628 2841 1473 2761 
Q 1319 2681 1319 2516 
Q 1319 2381 1436 2309 
Q 1553 2238 1856 2203 
L 2053 2175 
Q 2913 2066 3209 1816 
Q 3506 1566 3506 1031 
Q 3506 472 3093 190 
Q 2681 -91 1863 -91 
Q 1516 -91 1145 -36 
Q 775 19 384 128 
L 384 978 
Q 719 816 1070 734 
Q 1422 653 1784 653 
Q 2113 653 2278 743 
Q 2444 834 2444 1013 
Q 2444 1163 2330 1236 
Q 2216 1309 1875 1350 
L 1678 1375 
Q 931 1469 631 1722 
Q 331 1975 331 2491 
Q 331 3047 712 3315 
Q 1094 3584 1881 3584 
Q 2191 3584 2531 3537 
Q 2872 3491 3272 3391 
z
" transform="scale(0.015625)"/>
       <path id="DejaVuSans-Bold-29" d="M 513 -844 
Q 913 -100 1113 609 
Q 1313 1319 1313 2009 
Q 1313 2700 1113 3408 
Q 913 4116 513 4856 
L 1441 4856 
Q 1916 4091 2145 3389 
Q 2375 2688 2375 2003 
Q 2375 1319 2147 623 
Q 1919 -72 1441 -844 
L 513 -844 
z
" transform="scale(0.015625)"/>
      </defs>
      <use xlink:href="#DejaVuSans-Bold-5a" transform="translate(0 0.015625)"/>
      <use xlink:href="#DejaVuSans-Bold-69" transform="translate(72.509766 0.015625)"/>
      <use xlink:href="#DejaVuSans-Bold-43" transform="translate(106.787109 0.015625)"/>
      <use xlink:href="#DejaVuSans-Bold-6f" transform="translate(180.175781 0.015625)"/>
      <use xlink:href="#DejaVuSans-Bold-28" transform="translate(248.876953 0.015625)"/>
      <use xlink:href="#DejaVuSans-Bold-4f" transform="translate(294.580078 0.015625)"/>
      <use xlink:href="#DejaVuSans-Bold-75" transform="translate(379.589844 0.015625)"/>
      <use xlink:href="#DejaVuSans-Bold-72" transform="translate(450.78125 0.015625)"/>
      <use xlink:href="#DejaVuSans-Bold-73" transform="translate(500.097656 0.015625)"/>
      <use xlink:href="#DejaVuSans-Bold-29" transform="translate(559.619141 0.015625)"/>
     </g>
    </g>
   </g>
  </g>
 </g>
 <defs>
  <clipPath id="p24db282cdf">
   <rect x="87.86" y="19.44" width="353.5" height="261.16"/>
  </clipPath>
 </defs>
</svg>
